{
 "cells": [
  {
   "cell_type": "code",
   "execution_count": 145,
   "id": "b2353c23",
   "metadata": {},
   "outputs": [],
   "source": [
    "import json\n",
    "from PIL import Image, ImageDraw, ImageFont\n",
    "import subprocess"
   ]
  },
  {
   "cell_type": "code",
   "execution_count": 146,
   "id": "d6ed9edb",
   "metadata": {},
   "outputs": [],
   "source": [
    "PROJECT_FOLDER = '/Users/sangdo/Downloads/movie-top-list/'\n",
    "TRAILER_FOLDER = PROJECT_FOLDER + 'trailers/'\n",
    "BG_FILE = PROJECT_FOLDER + 'timeline_template/timeline_30_items.png'\n",
    "OUTPUT_LONG_VIDEO_FOLDER = PROJECT_FOLDER + 'long_video/'\n",
    "\n",
    "first_video_x = 13\n",
    "firxt_video_y = 65\n",
    "CANVAS_WIDTH = 19980    #length of background image\n",
    "CANVAS_HEIGHT = 1080\n",
    "VIEWPORT_WIDTH = 1920\n",
    "VIEWPORT_HEIGHT = 1080\n",
    "VIDEO_DURATION = 480\n",
    "CLIP_W = 640\n",
    "CLIP_H = 360\n",
    "#Scrollable distance: 19980 - 1920 = 18060 px\n",
    "#Desired duration: 480\n",
    "#Required speed: 18060 / 480 = 37.625 px/sec\n",
    "SCROLL_SPEED = ((CANVAS_WIDTH - VIEWPORT_WIDTH) / VIDEO_DURATION) * 1  #pixels per sec"
   ]
  },
  {
   "cell_type": "markdown",
   "id": "3e21e255",
   "metadata": {},
   "source": [
    "<h2>Find list of trailers of the actor<h2>"
   ]
  },
  {
   "cell_type": "code",
   "execution_count": 147,
   "id": "e93f5f07",
   "metadata": {},
   "outputs": [],
   "source": [
    "import pymongo\n",
    "import os\n",
    "import subprocess\n",
    "\n",
    "from dotenv import load_dotenv\n",
    "load_dotenv(override=True) \n",
    "\n",
    "db_client = pymongo.MongoClient(os.environ['REMOTE_MONGO_DB'])\n",
    "db = db_client['db_movie']   \n"
   ]
  },
  {
   "cell_type": "code",
   "execution_count": 148,
   "id": "5364ab20",
   "metadata": {},
   "outputs": [],
   "source": [
    "def get_trailer_ids(actor_name):\n",
    "    ids = []\n",
    "    tb_paycheck = db['tb_paycheck']\n",
    "    data = tb_paycheck.find({'actor': actor_name}).sort({'year':1}) #.limit(4)\n",
    "\n",
    "    for item in data:\n",
    "        ids.append(item['trailer'])\n",
    "    return ids\n",
    "\n",
    "#\n",
    "# get_trailer_ids('Tom Cruise')"
   ]
  },
  {
   "cell_type": "markdown",
   "id": "39fbf00f",
   "metadata": {},
   "source": [
    "<h2>Put a video at position X, Y inside a video</h2>"
   ]
  },
  {
   "cell_type": "code",
   "execution_count": null,
   "id": "51d9dee3",
   "metadata": {},
   "outputs": [
    {
     "name": "stdout",
     "output_type": "stream",
     "text": [
      "['iIaAL7JTEgE', 'ecBD3dRnho8', 'sCmYN6TLd8A', 'L8Pbjh4EZRk', 'KUd3gwaf0KQ', 'xgVo96JaqeM', 'KnamcFv_N9Q', 'hSPtsCQq52k', 'k09OX40NLUw', 'lG7DGMgfOb8', 'T50_qHEOahQ', 'MPr0OyV9_c0', 'jaasIlkad1Q', '4oVva0muTE8', '0n02lrQ_5Vo', 'Omgf9WuGwq8', '-9LyQxKVJO4', 'JGPl86DBNNs', 'EDGYVFZxsXQ', 'jbvzQLMqfH0', 'Q-oxhxD32MM', 'XmIIgE7eSak', 'vw61gCe2oqI', 'gOW_azQbOjw', 'aRwrdbcAh2s', 'IjHgzkQM2Sg', 'AEBIJRAkujM', 'giXco2jaZ_4', 'avz06PDqDbM', 'fsQgc9pCyDU']\n",
      "Running FFmpeg...\n"
     ]
    },
    {
     "name": "stderr",
     "output_type": "stream",
     "text": [
      "ffmpeg version 8.0.1 Copyright (c) 2000-2025 the FFmpeg developers\n",
      "  built with Apple clang version 17.0.0 (clang-1700.6.3.2)\n",
      "  configuration: --prefix=/opt/homebrew/Cellar/ffmpeg/8.0.1_4 --enable-shared --enable-pthreads --enable-version3 --cc=clang --host-cflags= --host-ldflags= --enable-ffplay --enable-gpl --enable-libsvtav1 --enable-libopus --enable-libx264 --enable-libmp3lame --enable-libdav1d --enable-libvpx --enable-libx265 --enable-openssl --enable-videotoolbox --enable-audiotoolbox --enable-neon\n",
      "  libavutil      60.  8.100 / 60.  8.100\n",
      "  libavcodec     62. 11.100 / 62. 11.100\n",
      "  libavformat    62.  3.100 / 62.  3.100\n",
      "  libavdevice    62.  1.100 / 62.  1.100\n",
      "  libavfilter    11.  4.100 / 11.  4.100\n",
      "  libswscale      9.  1.100 /  9.  1.100\n",
      "  libswresample   6.  1.100 /  6.  1.100\n",
      "Input #0, png_pipe, from '/Users/sangdo/Downloads/movie-top-list/timeline_template/timeline_30_items.png':\n",
      "  Duration: N/A, bitrate: N/A\n",
      "  Stream #0:0: Video: png, rgba(pc, gbr/unknown/unknown), 19980x1080, 25 fps, 25 tbr, 25 tbn\n",
      "Input #1, mov,mp4,m4a,3gp,3g2,mj2, from '/Users/sangdo/Downloads/movie-top-list/trailers/tom_cruise/iIaAL7JTEgE.mp4':\n",
      "  Metadata:\n",
      "    major_brand     : isom\n",
      "    minor_version   : 512\n",
      "    compatible_brands: isomiso2avc1mp41\n",
      "    encoder         : Lavf62.3.100\n",
      "  Duration: 00:00:20.02, start: 0.041000, bitrate: 320 kb/s\n",
      "  Stream #1:0[0x1](und): Video: h264 (High) (avc1 / 0x31637661), yuv420p(tv, bt709, progressive), 640x360 [SAR 1:1 DAR 16:9], 318 kb/s, 23.98 fps, 23.98 tbr, 24k tbn, start 0.041000 (default)\n",
      "    Metadata:\n",
      "      handler_name    : ISO Media file produced by Google Inc.\n",
      "      vendor_id       : [0][0][0][0]\n",
      "      encoder         : Lavc62.11.100 libx264\n",
      "Input #2, mov,mp4,m4a,3gp,3g2,mj2, from '/Users/sangdo/Downloads/movie-top-list/trailers/tom_cruise/ecBD3dRnho8.mp4':\n",
      "  Metadata:\n",
      "    major_brand     : isom\n",
      "    minor_version   : 512\n",
      "    compatible_brands: isomiso2avc1mp41\n",
      "    encoder         : Lavf62.3.100\n",
      "  Duration: 00:00:20.06, start: 0.000000, bitrate: 508 kb/s\n",
      "  Stream #2:0[0x1](und): Video: h264 (High) (avc1 / 0x31637661), yuv420p(tv, bt709, progressive), 640x360 [SAR 1:1 DAR 16:9], 367 kb/s, 23.98 fps, 23.98 tbr, 24k tbn, start 0.041000 (default)\n",
      "    Metadata:\n",
      "      handler_name    : ISO Media file produced by Google Inc. Created on: 02/13/2023.\n",
      "      vendor_id       : [0][0][0][0]\n",
      "      encoder         : Lavc62.11.100 libx264\n",
      "  Stream #2:1[0x2](eng): Audio: aac (LC) (mp4a / 0x6134706D), 44100 Hz, stereo, fltp, 134 kb/s (default)\n",
      "    Metadata:\n",
      "      handler_name    : ISO Media file produced by Google Inc. Created on: 02/13/2023.\n",
      "      vendor_id       : [0][0][0][0]\n",
      "Input #3, mov,mp4,m4a,3gp,3g2,mj2, from '/Users/sangdo/Downloads/movie-top-list/trailers/tom_cruise/sCmYN6TLd8A.mp4':\n",
      "  Metadata:\n",
      "    major_brand     : isom\n",
      "    minor_version   : 512\n",
      "    compatible_brands: isomiso2avc1mp41\n",
      "    encoder         : Lavf62.3.100\n",
      "  Duration: 00:00:20.02, start: 0.041000, bitrate: 239 kb/s\n",
      "  Stream #3:0[0x1](und): Video: h264 (High) (avc1 / 0x31637661), yuv420p(tv, bt709, progressive), 640x360 [SAR 1:1 DAR 16:9], 236 kb/s, 23.98 fps, 23.98 tbr, 24k tbn, start 0.041000 (default)\n",
      "    Metadata:\n",
      "      handler_name    : ISO Media file produced by Google Inc.\n",
      "      vendor_id       : [0][0][0][0]\n",
      "      encoder         : Lavc62.11.100 libx264\n",
      "Input #4, mov,mp4,m4a,3gp,3g2,mj2, from '/Users/sangdo/Downloads/movie-top-list/trailers/tom_cruise/L8Pbjh4EZRk.mp4':\n",
      "  Metadata:\n",
      "    major_brand     : isom\n",
      "    minor_version   : 512\n",
      "    compatible_brands: isomiso2avc1mp41\n",
      "    encoder         : Lavf62.3.100\n",
      "  Duration: 00:00:20.02, start: 0.041000, bitrate: 350 kb/s\n",
      "  Stream #4:0[0x1](und): Video: h264 (High) (avc1 / 0x31637661), yuv420p(tv, bt709, progressive), 640x360 [SAR 1:1 DAR 16:9], 347 kb/s, 23.98 fps, 23.98 tbr, 24k tbn, start 0.041000 (default)\n",
      "    Metadata:\n",
      "      handler_name    : ISO Media file produced by Google Inc.\n",
      "      vendor_id       : [0][0][0][0]\n",
      "      encoder         : Lavc62.11.100 libx264\n",
      "Input #5, mov,mp4,m4a,3gp,3g2,mj2, from '/Users/sangdo/Downloads/movie-top-list/trailers/tom_cruise/KUd3gwaf0KQ.mp4':\n",
      "  Metadata:\n",
      "    major_brand     : isom\n",
      "    minor_version   : 512\n",
      "    compatible_brands: isomiso2avc1mp41\n",
      "    encoder         : Lavf62.3.100\n",
      "  Duration: 00:00:20.02, start: 0.000000, bitrate: 347 kb/s\n",
      "  Stream #5:0[0x1](und): Video: h264 (High) (avc1 / 0x31637661), yuv420p(tv, bt709, progressive), 640x360 [SAR 1:1 DAR 16:9], 344 kb/s, 29.97 fps, 29.97 tbr, 30k tbn (default)\n",
      "    Metadata:\n",
      "      handler_name    : ISO Media file produced by Google Inc.\n",
      "      vendor_id       : [0][0][0][0]\n",
      "      encoder         : Lavc62.11.100 libx264\n",
      "Input #6, mov,mp4,m4a,3gp,3g2,mj2, from '/Users/sangdo/Downloads/movie-top-list/trailers/tom_cruise/xgVo96JaqeM.mp4':\n",
      "  Metadata:\n",
      "    major_brand     : isom\n",
      "    minor_version   : 512\n",
      "    compatible_brands: isomiso2avc1mp41\n",
      "    encoder         : Lavf62.3.100\n",
      "  Duration: 00:00:18.00, start: 0.000000, bitrate: 209 kb/s\n",
      "  Stream #6:0[0x1](und): Video: h264 (High) (avc1 / 0x31637661), yuv420p(tv, bt709, progressive), 640x360 [SAR 1:1 DAR 16:9], 207 kb/s, 25 fps, 25 tbr, 12800 tbn (default)\n",
      "    Metadata:\n",
      "      handler_name    : ISO Media file produced by Google Inc.\n",
      "      vendor_id       : [0][0][0][0]\n",
      "      encoder         : Lavc62.11.100 libx264\n",
      "Input #7, mov,mp4,m4a,3gp,3g2,mj2, from '/Users/sangdo/Downloads/movie-top-list/trailers/tom_cruise/KnamcFv_N9Q.mp4':\n",
      "  Metadata:\n",
      "    major_brand     : isom\n",
      "    minor_version   : 512\n",
      "    compatible_brands: isomiso2avc1mp41\n",
      "    encoder         : Lavf62.3.100\n",
      "  Duration: 00:00:20.02, start: 0.041000, bitrate: 288 kb/s\n",
      "  Stream #7:0[0x1](und): Video: h264 (High) (avc1 / 0x31637661), yuv420p(tv, bt709, progressive), 640x360 [SAR 1:1 DAR 16:9], 285 kb/s, 23.98 fps, 23.98 tbr, 24k tbn, start 0.041000 (default)\n",
      "    Metadata:\n",
      "      handler_name    : ISO Media file produced by Google Inc.\n",
      "      vendor_id       : [0][0][0][0]\n",
      "      encoder         : Lavc62.11.100 libx264\n",
      "Input #8, mov,mp4,m4a,3gp,3g2,mj2, from '/Users/sangdo/Downloads/movie-top-list/trailers/tom_cruise/hSPtsCQq52k.mp4':\n",
      "  Metadata:\n",
      "    major_brand     : isom\n",
      "    minor_version   : 512\n",
      "    compatible_brands: isomiso2avc1mp41\n",
      "    encoder         : Lavf62.3.100\n",
      "  Duration: 00:00:20.02, start: 0.041000, bitrate: 431 kb/s\n",
      "  Stream #8:0[0x1](und): Video: h264 (High) (avc1 / 0x31637661), yuv420p(tv, bt709, progressive), 640x360 [SAR 1:1 DAR 16:9], 428 kb/s, 23.98 fps, 23.98 tbr, 24k tbn, start 0.041000 (default)\n",
      "    Metadata:\n",
      "      handler_name    : ISO Media file produced by Google Inc.\n",
      "      vendor_id       : [0][0][0][0]\n",
      "      encoder         : Lavc62.11.100 libx264\n",
      "Input #9, mov,mp4,m4a,3gp,3g2,mj2, from '/Users/sangdo/Downloads/movie-top-list/trailers/tom_cruise/k09OX40NLUw.mp4':\n",
      "  Metadata:\n",
      "    major_brand     : isom\n",
      "    minor_version   : 512\n",
      "    compatible_brands: isomiso2avc1mp41\n",
      "    encoder         : Lavf62.3.100\n",
      "  Duration: 00:00:20.02, start: 0.041000, bitrate: 228 kb/s\n",
      "  Stream #9:0[0x1](und): Video: h264 (High) (avc1 / 0x31637661), yuv420p(tv, bt709, progressive), 640x360 [SAR 1:1 DAR 16:9], 225 kb/s, 23.98 fps, 23.98 tbr, 24k tbn, start 0.041000 (default)\n",
      "    Metadata:\n",
      "      handler_name    : ISO Media file produced by Google Inc.\n",
      "      vendor_id       : [0][0][0][0]\n",
      "      encoder         : Lavc62.11.100 libx264\n",
      "Input #10, mov,mp4,m4a,3gp,3g2,mj2, from '/Users/sangdo/Downloads/movie-top-list/trailers/tom_cruise/lG7DGMgfOb8.mp4':\n",
      "  Metadata:\n",
      "    major_brand     : isom\n",
      "    minor_version   : 512\n",
      "    compatible_brands: isomiso2avc1mp41\n",
      "    encoder         : Lavf62.3.100\n",
      "  Duration: 00:00:20.02, start: 0.041000, bitrate: 442 kb/s\n",
      "  Stream #10:0[0x1](und): Video: h264 (High) (avc1 / 0x31637661), yuv420p(tv, bt709, progressive), 640x360 [SAR 1:1 DAR 16:9], 439 kb/s, 23.98 fps, 23.98 tbr, 24k tbn, start 0.041000 (default)\n",
      "    Metadata:\n",
      "      handler_name    : ISO Media file produced by Google Inc.\n",
      "      vendor_id       : [0][0][0][0]\n",
      "      encoder         : Lavc62.11.100 libx264\n",
      "Input #11, mov,mp4,m4a,3gp,3g2,mj2, from '/Users/sangdo/Downloads/movie-top-list/trailers/tom_cruise/T50_qHEOahQ.mp4':\n",
      "  Metadata:\n",
      "    major_brand     : isom\n",
      "    minor_version   : 512\n",
      "    compatible_brands: isomiso2avc1mp41\n",
      "    encoder         : Lavf62.3.100\n",
      "  Duration: 00:00:20.00, start: 0.000000, bitrate: 208 kb/s\n",
      "  Stream #11:0[0x1](und): Video: h264 (High) (avc1 / 0x31637661), yuv420p(tv, bt709, progressive), 640x360 [SAR 1:1 DAR 16:9], 206 kb/s, 24 fps, 24 tbr, 12288 tbn (default)\n",
      "    Metadata:\n",
      "      handler_name    : ISO Media file produced by Google Inc.\n",
      "      vendor_id       : [0][0][0][0]\n",
      "      encoder         : Lavc62.11.100 libx264\n",
      "Input #12, mov,mp4,m4a,3gp,3g2,mj2, from '/Users/sangdo/Downloads/movie-top-list/trailers/tom_cruise/MPr0OyV9_c0.mp4':\n",
      "  Metadata:\n",
      "    major_brand     : isom\n",
      "    minor_version   : 512\n",
      "    compatible_brands: isomiso2avc1mp41\n",
      "    encoder         : Lavf62.3.100\n",
      "  Duration: 00:00:20.00, start: 0.000000, bitrate: 473 kb/s\n",
      "  Stream #12:0[0x1](und): Video: h264 (High) (avc1 / 0x31637661), yuv420p(tv, bt709, progressive), 640x360 [SAR 1:1 DAR 16:9], 336 kb/s, 25 fps, 25 tbr, 12800 tbn (default)\n",
      "    Metadata:\n",
      "      handler_name    : ISO Media file produced by Google Inc. Created on: 08/15/2023.\n",
      "      vendor_id       : [0][0][0][0]\n",
      "      encoder         : Lavc62.11.100 libx264\n",
      "  Stream #12:1[0x2](eng): Audio: aac (LC) (mp4a / 0x6134706D), 44100 Hz, stereo, fltp, 129 kb/s (default)\n",
      "    Metadata:\n",
      "      handler_name    : ISO Media file produced by Google Inc. Created on: 08/15/2023.\n",
      "      vendor_id       : [0][0][0][0]\n",
      "Input #13, mov,mp4,m4a,3gp,3g2,mj2, from '/Users/sangdo/Downloads/movie-top-list/trailers/tom_cruise/jaasIlkad1Q.mp4':\n",
      "  Metadata:\n",
      "    major_brand     : isom\n",
      "    minor_version   : 512\n",
      "    compatible_brands: isomiso2avc1mp41\n",
      "    encoder         : Lavf62.3.100\n",
      "  Duration: 00:00:20.06, start: 0.000000, bitrate: 718 kb/s\n",
      "  Stream #13:0[0x1](und): Video: h264 (High) (avc1 / 0x31637661), yuv420p(tv, bt709, progressive), 640x360 [SAR 1:1 DAR 16:9], 584 kb/s, 23.98 fps, 23.98 tbr, 24k tbn, start 0.041000 (default)\n",
      "    Metadata:\n",
      "      handler_name    : ISO Media file produced by Google Inc. Created on: 03/09/2025.\n",
      "      vendor_id       : [0][0][0][0]\n",
      "      encoder         : Lavc62.11.100 libx264\n",
      "  Stream #13:1[0x2](eng): Audio: aac (LC) (mp4a / 0x6134706D), 44100 Hz, stereo, fltp, 128 kb/s (default)\n",
      "    Metadata:\n",
      "      handler_name    : ISO Media file produced by Google Inc. Created on: 03/09/2025.\n",
      "      vendor_id       : [0][0][0][0]\n",
      "Input #14, mov,mp4,m4a,3gp,3g2,mj2, from '/Users/sangdo/Downloads/movie-top-list/trailers/tom_cruise/4oVva0muTE8.mp4':\n",
      "  Metadata:\n",
      "    major_brand     : isom\n",
      "    minor_version   : 512\n",
      "    compatible_brands: isomiso2avc1mp41\n",
      "    encoder         : Lavf62.3.100\n",
      "  Duration: 00:00:20.02, start: 0.041000, bitrate: 581 kb/s\n",
      "  Stream #14:0[0x1](und): Video: h264 (High) (avc1 / 0x31637661), yuv420p(tv, bt709, progressive), 640x360 [SAR 1:1 DAR 16:9], 578 kb/s, 23.98 fps, 23.98 tbr, 24k tbn, start 0.041000 (default)\n",
      "    Metadata:\n",
      "      handler_name    : ISO Media file produced by Google Inc.\n",
      "      vendor_id       : [0][0][0][0]\n",
      "      encoder         : Lavc62.11.100 libx264\n",
      "Input #15, mov,mp4,m4a,3gp,3g2,mj2, from '/Users/sangdo/Downloads/movie-top-list/trailers/tom_cruise/0n02lrQ_5Vo.mp4':\n",
      "  Metadata:\n",
      "    major_brand     : isom\n",
      "    minor_version   : 512\n",
      "    compatible_brands: isomiso2avc1mp41\n",
      "    encoder         : Lavf62.3.100\n",
      "  Duration: 00:00:20.06, start: 0.000000, bitrate: 391 kb/s\n",
      "  Stream #15:0[0x1](und): Video: h264 (High) (avc1 / 0x31637661), yuv420p(tv, bt709, progressive), 640x266 [SAR 1:1 DAR 320:133], 253 kb/s, 23.98 fps, 23.98 tbr, 24k tbn, start 0.041000 (default)\n",
      "    Metadata:\n",
      "      handler_name    : ISO Media file produced by Google Inc. Created on: 03/07/2024.\n",
      "      vendor_id       : [0][0][0][0]\n",
      "      encoder         : Lavc62.11.100 libx264\n",
      "  Stream #15:1[0x2](eng): Audio: aac (LC) (mp4a / 0x6134706D), 44100 Hz, stereo, fltp, 132 kb/s (default)\n",
      "    Metadata:\n",
      "      handler_name    : ISO Media file produced by Google Inc. Created on: 03/07/2024.\n",
      "      vendor_id       : [0][0][0][0]\n",
      "Input #16, mov,mp4,m4a,3gp,3g2,mj2, from '/Users/sangdo/Downloads/movie-top-list/trailers/tom_cruise/Omgf9WuGwq8.mp4':\n",
      "  Metadata:\n",
      "    major_brand     : isom\n",
      "    minor_version   : 512\n",
      "    compatible_brands: isomiso2avc1mp41\n",
      "    encoder         : Lavf62.3.100\n",
      "  Duration: 00:00:20.02, start: 0.041000, bitrate: 244 kb/s\n",
      "  Stream #16:0[0x1](und): Video: h264 (High) (avc1 / 0x31637661), yuv420p(tv, bt709, progressive), 640x270 [SAR 1:1 DAR 64:27], 242 kb/s, 23.98 fps, 23.98 tbr, 24k tbn, start 0.041000 (default)\n",
      "    Metadata:\n",
      "      handler_name    : ISO Media file produced by Google Inc.\n",
      "      vendor_id       : [0][0][0][0]\n",
      "      encoder         : Lavc62.11.100 libx264\n",
      "Input #17, mov,mp4,m4a,3gp,3g2,mj2, from '/Users/sangdo/Downloads/movie-top-list/trailers/tom_cruise/-9LyQxKVJO4.mp4':\n",
      "  Metadata:\n",
      "    major_brand     : isom\n",
      "    minor_version   : 512\n",
      "    compatible_brands: isomiso2avc1mp41\n",
      "    encoder         : Lavf62.3.100\n",
      "  Duration: 00:00:20.06, start: 0.000000, bitrate: 499 kb/s\n",
      "  Stream #17:0[0x1](und): Video: h264 (High) (avc1 / 0x31637661), yuv420p(tv, bt709, progressive), 640x360 [SAR 1:1 DAR 16:9], 363 kb/s, 23.98 fps, 23.98 tbr, 24k tbn, start 0.041000 (default)\n",
      "    Metadata:\n",
      "      handler_name    : ISO Media file produced by Google Inc. Created on: 05/14/2023.\n",
      "      vendor_id       : [0][0][0][0]\n",
      "      encoder         : Lavc62.11.100 libx264\n",
      "  Stream #17:1[0x2](und): Audio: aac (LC) (mp4a / 0x6134706D), 44100 Hz, stereo, fltp, 130 kb/s (default)\n",
      "    Metadata:\n",
      "      handler_name    : ISO Media file produced by Google Inc. Created on: 05/14/2023.\n",
      "      vendor_id       : [0][0][0][0]\n",
      "Input #18, mov,mp4,m4a,3gp,3g2,mj2, from '/Users/sangdo/Downloads/movie-top-list/trailers/tom_cruise/JGPl86DBNNs.mp4':\n",
      "  Metadata:\n",
      "    major_brand     : isom\n",
      "    minor_version   : 512\n",
      "    compatible_brands: isomiso2avc1mp41\n",
      "    encoder         : Lavf62.3.100\n",
      "  Duration: 00:00:20.02, start: 0.041000, bitrate: 324 kb/s\n",
      "  Stream #18:0[0x1](und): Video: h264 (High) (avc1 / 0x31637661), yuv420p(tv, bt709, progressive), 640x360 [SAR 1:1 DAR 16:9], 322 kb/s, 23.98 fps, 23.98 tbr, 24k tbn, start 0.041000 (default)\n",
      "    Metadata:\n",
      "      handler_name    : ISO Media file produced by Google Inc.\n",
      "      vendor_id       : [0][0][0][0]\n",
      "      encoder         : Lavc62.11.100 libx264\n",
      "Input #19, mov,mp4,m4a,3gp,3g2,mj2, from '/Users/sangdo/Downloads/movie-top-list/trailers/tom_cruise/EDGYVFZxsXQ.mp4':\n",
      "  Metadata:\n",
      "    major_brand     : isom\n",
      "    minor_version   : 512\n",
      "    compatible_brands: isomiso2avc1mp41\n",
      "    encoder         : Lavf62.3.100\n",
      "  Duration: 00:00:20.02, start: 0.041000, bitrate: 256 kb/s\n",
      "  Stream #19:0[0x1](und): Video: h264 (High) (avc1 / 0x31637661), yuv420p(tv, bt709, progressive), 640x360 [SAR 1:1 DAR 16:9], 253 kb/s, 23.98 fps, 23.98 tbr, 24k tbn, start 0.041000 (default)\n",
      "    Metadata:\n",
      "      handler_name    : ISO Media file produced by Google Inc.\n",
      "      vendor_id       : [0][0][0][0]\n",
      "      encoder         : Lavc62.11.100 libx264\n",
      "Input #20, mov,mp4,m4a,3gp,3g2,mj2, from '/Users/sangdo/Downloads/movie-top-list/trailers/tom_cruise/jbvzQLMqfH0.mp4':\n",
      "  Metadata:\n",
      "    major_brand     : isom\n",
      "    minor_version   : 512\n",
      "    compatible_brands: isomiso2avc1mp41\n",
      "    encoder         : Lavf62.3.100\n",
      "  Duration: 00:00:20.00, start: 0.000000, bitrate: 780 kb/s\n",
      "  Stream #20:0[0x1](und): Video: h264 (High) (avc1 / 0x31637661), yuv420p(tv, bt709, progressive), 640x272 [SAR 1:1 DAR 40:17], 645 kb/s, 24 fps, 24 tbr, 12288 tbn (default)\n",
      "    Metadata:\n",
      "      handler_name    : ISO Media file produced by Google Inc. Created on: 03/10/2025.\n",
      "      vendor_id       : [0][0][0][0]\n",
      "      encoder         : Lavc62.11.100 libx264\n",
      "  Stream #20:1[0x2](eng): Audio: aac (LC) (mp4a / 0x6134706D), 44100 Hz, stereo, fltp, 127 kb/s (default)\n",
      "    Metadata:\n",
      "      handler_name    : ISO Media file produced by Google Inc. Created on: 03/10/2025.\n",
      "      vendor_id       : [0][0][0][0]\n",
      "Input #21, mov,mp4,m4a,3gp,3g2,mj2, from '/Users/sangdo/Downloads/movie-top-list/trailers/tom_cruise/Q-oxhxD32MM.mp4':\n",
      "  Metadata:\n",
      "    major_brand     : isom\n",
      "    minor_version   : 512\n",
      "    compatible_brands: isomiso2avc1mp41\n",
      "    encoder         : Lavf62.3.100\n",
      "  Duration: 00:00:20.02, start: 0.000000, bitrate: 428 kb/s\n",
      "  Stream #21:0[0x1](und): Video: h264 (High) (avc1 / 0x31637661), yuv420p(tv, bt709, progressive), 640x360 [SAR 1:1 DAR 16:9], 289 kb/s, 29.97 fps, 29.97 tbr, 30k tbn (default)\n",
      "    Metadata:\n",
      "      handler_name    : ISO Media file produced by Google Inc. Created on: 08/31/2024.\n",
      "      vendor_id       : [0][0][0][0]\n",
      "      encoder         : Lavc62.11.100 libx264\n",
      "  Stream #21:1[0x2](und): Audio: aac (LC) (mp4a / 0x6134706D), 44100 Hz, stereo, fltp, 130 kb/s (default)\n",
      "    Metadata:\n",
      "      handler_name    : ISO Media file produced by Google Inc. Created on: 08/31/2024.\n",
      "      vendor_id       : [0][0][0][0]\n",
      "Input #22, mov,mp4,m4a,3gp,3g2,mj2, from '/Users/sangdo/Downloads/movie-top-list/trailers/tom_cruise/XmIIgE7eSak.mp4':\n",
      "  Metadata:\n",
      "    major_brand     : isom\n",
      "    minor_version   : 512\n",
      "    compatible_brands: isomiso2avc1mp41\n",
      "    encoder         : Lavf62.3.100\n",
      "  Duration: 00:00:20.06, start: 0.000000, bitrate: 441 kb/s\n",
      "  Stream #22:0[0x1](und): Video: h264 (High) (avc1 / 0x31637661), yuv420p(tv, bt709, progressive), 640x266 [SAR 1:1 DAR 320:133], 306 kb/s, 23.98 fps, 23.98 tbr, 24k tbn, start 0.041000 (default)\n",
      "    Metadata:\n",
      "      handler_name    : ISO Media file produced by Google Inc. Created on: 02/26/2024.\n",
      "      vendor_id       : [0][0][0][0]\n",
      "      encoder         : Lavc62.11.100 libx264\n",
      "  Stream #22:1[0x2](eng): Audio: aac (LC) (mp4a / 0x6134706D), 44100 Hz, stereo, fltp, 129 kb/s (default)\n",
      "    Metadata:\n",
      "      handler_name    : ISO Media file produced by Google Inc. Created on: 02/26/2024.\n",
      "      vendor_id       : [0][0][0][0]\n",
      "Input #23, mov,mp4,m4a,3gp,3g2,mj2, from '/Users/sangdo/Downloads/movie-top-list/trailers/tom_cruise/vw61gCe2oqI.mp4':\n",
      "  Metadata:\n",
      "    major_brand     : isom\n",
      "    minor_version   : 512\n",
      "    compatible_brands: isomiso2avc1mp41\n",
      "    encoder         : Lavf62.3.100\n",
      "  Duration: 00:00:20.02, start: 0.041000, bitrate: 492 kb/s\n",
      "  Stream #23:0[0x1](und): Video: h264 (High) (avc1 / 0x31637661), yuv420p(tv, bt709, progressive), 640x360 [SAR 1:1 DAR 16:9], 489 kb/s, 23.98 fps, 23.98 tbr, 24k tbn, start 0.041000 (default)\n",
      "    Metadata:\n",
      "      handler_name    : ISO Media file produced by Google Inc.\n",
      "      vendor_id       : [0][0][0][0]\n",
      "      encoder         : Lavc62.11.100 libx264\n",
      "Input #24, mov,mp4,m4a,3gp,3g2,mj2, from '/Users/sangdo/Downloads/movie-top-list/trailers/tom_cruise/gOW_azQbOjw.mp4':\n",
      "  Metadata:\n",
      "    major_brand     : isom\n",
      "    minor_version   : 512\n",
      "    compatible_brands: isomiso2avc1mp41\n",
      "    encoder         : Lavf62.3.100\n",
      "  Duration: 00:00:20.02, start: 0.041000, bitrate: 368 kb/s\n",
      "  Stream #24:0[0x1](und): Video: h264 (High) (avc1 / 0x31637661), yuv420p(tv, bt709, progressive), 640x360 [SAR 1:1 DAR 16:9], 366 kb/s, 23.98 fps, 23.98 tbr, 24k tbn, start 0.041000 (default)\n",
      "    Metadata:\n",
      "      handler_name    : ISO Media file produced by Google Inc.\n",
      "      vendor_id       : [0][0][0][0]\n",
      "      encoder         : Lavc62.11.100 libx264\n",
      "Input #25, mov,mp4,m4a,3gp,3g2,mj2, from '/Users/sangdo/Downloads/movie-top-list/trailers/tom_cruise/aRwrdbcAh2s.mp4':\n",
      "  Metadata:\n",
      "    major_brand     : isom\n",
      "    minor_version   : 512\n",
      "    compatible_brands: isomiso2avc1mp41\n",
      "    encoder         : Lavf62.3.100\n",
      "  Duration: 00:00:20.02, start: 0.041000, bitrate: 219 kb/s\n",
      "  Stream #25:0[0x1](und): Video: h264 (High) (avc1 / 0x31637661), yuv420p(tv, bt709, progressive), 640x360 [SAR 1:1 DAR 16:9], 216 kb/s, 23.98 fps, 23.98 tbr, 24k tbn, start 0.041000 (default)\n",
      "    Metadata:\n",
      "      handler_name    : ISO Media file produced by Google Inc.\n",
      "      vendor_id       : [0][0][0][0]\n",
      "      encoder         : Lavc62.11.100 libx264\n",
      "Input #26, mov,mp4,m4a,3gp,3g2,mj2, from '/Users/sangdo/Downloads/movie-top-list/trailers/tom_cruise/IjHgzkQM2Sg.mp4':\n",
      "  Metadata:\n",
      "    major_brand     : isom\n",
      "    minor_version   : 512\n",
      "    compatible_brands: isomiso2avc1mp41\n",
      "    encoder         : Lavf62.3.100\n",
      "  Duration: 00:00:20.02, start: 0.041000, bitrate: 620 kb/s\n",
      "  Stream #26:0[0x1](und): Video: h264 (High) (avc1 / 0x31637661), yuv420p(tv, bt709, progressive), 640x360 [SAR 1:1 DAR 16:9], 617 kb/s, 23.98 fps, 23.98 tbr, 24k tbn, start 0.041000 (default)\n",
      "    Metadata:\n",
      "      handler_name    : ISO Media file produced by Google Inc.\n",
      "      vendor_id       : [0][0][0][0]\n",
      "      encoder         : Lavc62.11.100 libx264\n",
      "Input #27, mov,mp4,m4a,3gp,3g2,mj2, from '/Users/sangdo/Downloads/movie-top-list/trailers/tom_cruise/AEBIJRAkujM.mp4':\n",
      "  Metadata:\n",
      "    major_brand     : isom\n",
      "    minor_version   : 512\n",
      "    compatible_brands: isomiso2avc1mp41\n",
      "    encoder         : Lavf62.3.100\n",
      "  Duration: 00:00:20.02, start: 0.041000, bitrate: 525 kb/s\n",
      "  Stream #27:0[0x1](und): Video: h264 (High) (avc1 / 0x31637661), yuv420p(tv, bt709, progressive), 640x360 [SAR 1:1 DAR 16:9], 523 kb/s, 23.98 fps, 23.98 tbr, 24k tbn, start 0.041000 (default)\n",
      "    Metadata:\n",
      "      handler_name    : ISO Media file produced by Google Inc.\n",
      "      vendor_id       : [0][0][0][0]\n",
      "      encoder         : Lavc62.11.100 libx264\n",
      "Input #28, mov,mp4,m4a,3gp,3g2,mj2, from '/Users/sangdo/Downloads/movie-top-list/trailers/tom_cruise/giXco2jaZ_4.mp4':\n",
      "  Metadata:\n",
      "    major_brand     : isom\n",
      "    minor_version   : 512\n",
      "    compatible_brands: isomiso2avc1mp41\n",
      "    encoder         : Lavf62.3.100\n",
      "  Duration: 00:00:20.02, start: 0.041000, bitrate: 309 kb/s\n",
      "  Stream #28:0[0x1](und): Video: h264 (High) (avc1 / 0x31637661), yuv420p(tv, bt709, progressive), 640x360 [SAR 1:1 DAR 16:9], 306 kb/s, 23.98 fps, 23.98 tbr, 24k tbn, start 0.041000 (default)\n",
      "    Metadata:\n",
      "      handler_name    : ISO Media file produced by Google Inc.\n",
      "      vendor_id       : [0][0][0][0]\n",
      "      encoder         : Lavc62.11.100 libx264\n",
      "Input #29, mov,mp4,m4a,3gp,3g2,mj2, from '/Users/sangdo/Downloads/movie-top-list/trailers/tom_cruise/avz06PDqDbM.mp4':\n",
      "  Metadata:\n",
      "    major_brand     : isom\n",
      "    minor_version   : 512\n",
      "    compatible_brands: isomiso2avc1mp41\n",
      "    encoder         : Lavf62.3.100\n",
      "  Duration: 00:00:20.02, start: 0.041000, bitrate: 754 kb/s\n",
      "  Stream #29:0[0x1](und): Video: h264 (High) (avc1 / 0x31637661), yuv420p(tv, bt709, progressive), 640x360 [SAR 1:1 DAR 16:9], 752 kb/s, 23.98 fps, 23.98 tbr, 24k tbn, start 0.041000 (default)\n",
      "    Metadata:\n",
      "      handler_name    : ISO Media file produced by Google Inc.\n",
      "      vendor_id       : [0][0][0][0]\n",
      "      encoder         : Lavc62.11.100 libx264\n",
      "Input #30, mov,mp4,m4a,3gp,3g2,mj2, from '/Users/sangdo/Downloads/movie-top-list/trailers/tom_cruise/fsQgc9pCyDU.mp4':\n",
      "  Metadata:\n",
      "    major_brand     : isom\n",
      "    minor_version   : 512\n",
      "    compatible_brands: isomiso2avc1mp41\n",
      "    encoder         : Lavf62.3.100\n",
      "  Duration: 00:00:20.02, start: 0.041000, bitrate: 420 kb/s\n",
      "  Stream #30:0[0x1](und): Video: h264 (High) (avc1 / 0x31637661), yuv420p(tv, bt709, progressive), 640x360 [SAR 1:1 DAR 16:9], 417 kb/s, 23.98 fps, 23.98 tbr, 24k tbn, start 0.041000 (default)\n",
      "    Metadata:\n",
      "      handler_name    : ISO Media file produced by Google Inc.\n",
      "      vendor_id       : [0][0][0][0]\n",
      "      encoder         : Lavc62.11.100 libx264\n",
      "Stream mapping:\n",
      "  Stream #0:0 (png) -> scale:default\n",
      "  Stream #1:0 (h264) -> scale:default\n",
      "  Stream #2:0 (h264) -> scale:default\n",
      "  Stream #3:0 (h264) -> scale:default\n",
      "  Stream #4:0 (h264) -> scale:default\n",
      "  Stream #5:0 (h264) -> scale:default\n",
      "  Stream #6:0 (h264) -> scale:default\n",
      "  Stream #7:0 (h264) -> scale:default\n",
      "  Stream #8:0 (h264) -> scale:default\n",
      "  Stream #9:0 (h264) -> scale:default\n",
      "  Stream #10:0 (h264) -> scale:default\n",
      "  Stream #11:0 (h264) -> scale:default\n",
      "  Stream #12:0 (h264) -> scale:default\n",
      "  Stream #13:0 (h264) -> scale:default\n",
      "  Stream #14:0 (h264) -> scale:default\n",
      "  Stream #15:0 (h264) -> scale:default\n",
      "  Stream #16:0 (h264) -> scale:default\n",
      "  Stream #17:0 (h264) -> scale:default\n",
      "  Stream #18:0 (h264) -> scale:default\n",
      "  Stream #19:0 (h264) -> scale:default\n",
      "  Stream #20:0 (h264) -> scale:default\n",
      "  Stream #21:0 (h264) -> scale:default\n",
      "  Stream #22:0 (h264) -> scale:default\n",
      "  Stream #23:0 (h264) -> scale:default\n",
      "  Stream #24:0 (h264) -> scale:default\n",
      "  Stream #25:0 (h264) -> scale:default\n",
      "  Stream #26:0 (h264) -> scale:default\n",
      "  Stream #27:0 (h264) -> scale:default\n",
      "  Stream #28:0 (h264) -> scale:default\n",
      "  Stream #29:0 (h264) -> scale:default\n",
      "  Stream #30:0 (h264) -> scale:default\n",
      "  crop:default -> Stream #0:0 (libx264)\n",
      "Press [q] to stop, [?] for help\n",
      "[libx264 @ 0x92f201c00] using cpu capabilities: ARMv8 NEON DotProd I8MM\n",
      "[libx264 @ 0x92f201c00] profile Constrained Baseline, level 4.0, 4:2:0, 8-bit\n",
      "[libx264 @ 0x92f201c00] 264 - core 165 r3222 b35605a - H.264/MPEG-4 AVC codec - Copyleft 2003-2025 - http://www.videolan.org/x264.html - options: cabac=0 ref=1 deblock=0:0:0 analyse=0:0 me=dia subme=0 psy=1 psy_rd=1.00:0.00 mixed_ref=0 me_range=16 chroma_me=1 trellis=0 8x8dct=0 cqm=0 deadzone=21,11 fast_pskip=1 chroma_qp_offset=0 threads=15 lookahead_threads=2 sliced_threads=0 nr=0 decimate=1 interlaced=0 bluray_compat=0 constrained_intra=0 bframes=0 weightp=0 keyint=250 keyint_min=25 scenecut=0 intra_refresh=0 rc=crf mbtree=0 crf=23.0 qcomp=0.60 qpmin=0 qpmax=69 qpstep=4 ip_ratio=1.40 aq=0\n",
      "Output #0, mp4, to '/Users/sangdo/Downloads/movie-top-list/long_video/tom_cruise.mp4':\n",
      "  Metadata:\n",
      "    encoder         : Lavf62.3.100\n",
      "  Stream #0:0: Video: h264 (avc1 / 0x31637661), yuv420p(tv, bt709/unknown/unknown, progressive), 1920x1080, q=2-31, 30 fps, 15360 tbn\n",
      "    Metadata:\n",
      "      encoder         : Lavc62.11.100 libx264\n",
      "    Side data:\n",
      "      cpb: bitrate max/min/avg: 0/0/0 buffer size: 0 vbv_delay: N/A\n",
      "[fc#0 @ 0x92ec18000] [vo0->#0:0 @ 0x92f084700] More than 1000 frames duplicateds/s dup=995 drop=0 speed=4.14x elapsed=0:00:47.89    \n",
      "[mp4 @ 0x92ef21b80] Starting second pass: moving the moov atom to the beginning of the file drop=0 speed=4.08x elapsed=0:01:56.92    \n",
      "[out#0/mp4 @ 0x92ec81380] video:14145KiB audio:0KiB subtitle:0KiB other streams:0KiB global headers:0KiB muxing overhead: 0.406480%\n",
      "frame=14400 fps=123 q=-1.0 Lsize=   14202KiB time=00:08:00.00 bitrate= 242.4kbits/s dup=2400 drop=0 speed=4.09x elapsed=0:01:57.40    \n",
      "[libx264 @ 0x92f201c00] frame I:58    Avg QP:12.00  size:104407\n",
      "[libx264 @ 0x92f201c00] frame P:14342 Avg QP:14.62  size:   588\n",
      "[libx264 @ 0x92f201c00] mb I  I16..4: 100.0%  0.0%  0.0%\n",
      "[libx264 @ 0x92f201c00] mb P  I16..4:  0.6%  0.0%  0.0%  P16..4:  2.3%  0.0%  0.0%  0.0%  0.0%    skip:97.1%\n",
      "[libx264 @ 0x92f201c00] coded y,uvDC,uvAC intra: 10.7% 11.6% 8.0% inter: 0.1% 0.1% 0.0%\n",
      "[libx264 @ 0x92f201c00] i16 v,h,dc,p: 87%  9%  2%  2%\n",
      "[libx264 @ 0x92f201c00] i8c dc,h,v,p: 65%  6% 27%  2%\n",
      "[libx264 @ 0x92f201c00] kb/s:241.39\n"
     ]
    }
   ],
   "source": [
    "def put_video_inside_video(actor_key, trailer_ids):\n",
    "    inputs = \"\"\n",
    "    filters = \"\"\n",
    "\n",
    "    # build ffmpeg input list\n",
    "    i = 0\n",
    "    for trailer_id in trailer_ids:\n",
    "        filepath = TRAILER_FOLDER + actor_key + \"/\"+trailer_id+\".mp4\"\n",
    "        inputs += f\"-i {filepath} \"\n",
    "\n",
    "        x = first_video_x + i * CLIP_W  #position of the clip\n",
    "        trigger_x = VIEWPORT_WIDTH * 2 / 3    #start playing while reach to the center\n",
    "\n",
    "        delay = max((x - trigger_x) / SCROLL_SPEED, 0)\n",
    "        play_time = 20\n",
    "\n",
    "        filters += (\n",
    "            f\"[{i+1}:v]\"\n",
    "            f\"scale={CLIP_W}:{CLIP_H},\"\n",
    "            f\"trim=duration={play_time},\"\n",
    "            f\"tpad=start_duration={delay}:start_mode=clone,\"\n",
    "            f\"tpad=stop_duration=500:stop_mode=clone\"\n",
    "            f\"[v{i}];\"\n",
    "        )\n",
    "\n",
    "        i = i + 1\n",
    "\n",
    "    # create base canvas\n",
    "    filters += f\"[0:v]scale={CANVAS_WIDTH}:{CANVAS_HEIGHT}[base];\"\n",
    "\n",
    "    last = \"base\"\n",
    "\n",
    "    # overlay clips in position\n",
    "    i = 0\n",
    "    for trailer_id in trailer_ids:\n",
    "        x = 666 * i + first_video_x\n",
    "        filters += f\"[{last}][v{i}]overlay={x}:{firxt_video_y}:eof_action=pass[tmp{i}];\"\n",
    "        last = f\"tmp{i}\"\n",
    "        i = i + 1\n",
    "\n",
    "    # scrolling camera\n",
    "    filters += f\"[{last}]crop={VIEWPORT_WIDTH}:{VIEWPORT_HEIGHT}:x='t*{SCROLL_SPEED}':y=0[out]\"  #standard youtube landscape video size\n",
    "    output_filename = OUTPUT_LONG_VIDEO_FOLDER + actor_key + \".mp4\"\n",
    "    cmd = f'ffmpeg -y -loop 1 -i {BG_FILE} {inputs} -filter_complex \"{filters}\" -map \"[out]\" -t 480 -r 30 -c:v libx264 -preset ultrafast -crf 23 -movflags +faststart -pix_fmt yuv420p {output_filename}'\n",
    "    print(\"Running FFmpeg...\")\n",
    "    subprocess.run(cmd, shell=True)\n",
    "\n",
    "#test\n",
    "actor_name = 'Tom Cruise'\n",
    "trailer_ids = get_trailer_ids(actor_name)\n",
    "print(trailer_ids)\n",
    "put_video_inside_video('tom_cruise', trailer_ids)    #size w 19980: 8 minutes ~ "
   ]
  },
  {
   "cell_type": "code",
   "execution_count": null,
   "id": "bb7aa6ac",
   "metadata": {},
   "outputs": [],
   "source": []
  }
 ],
 "metadata": {
  "kernelspec": {
   "display_name": "Python 3",
   "language": "python",
   "name": "python3"
  },
  "language_info": {
   "codemirror_mode": {
    "name": "ipython",
    "version": 3
   },
   "file_extension": ".py",
   "mimetype": "text/x-python",
   "name": "python",
   "nbconvert_exporter": "python",
   "pygments_lexer": "ipython3",
   "version": "3.10.19"
  }
 },
 "nbformat": 4,
 "nbformat_minor": 5
}
